#!OML:ASF X:\für Bonn\!DataBase\2005_08_12_Daniel\c3d\Daniel.ASF
:FULLY-SPECIFIED
:DEGREES
31
root -0.144889 16.3163 -5.59142 -1252.44 108.886 192.78
lowerback 39.3044 -0.5186 -2.8343
upperback 12.0711 -0.5675 -2.1857
thorax -5.66047 0.302902 -0.684114
lowerneck 5.76865 0.588506 -2.82093
upperneck 7.22461 0.521591 6.54315
head 1.2652 0.312206 2.56998
rclavicle -3.81667e-014 2.76311e-014
rhumerus -373.888 9.44834 270.665
rradius 36.1573
rwrist 16.1417
rhand -16.8181 737.677
rfingers 7.12502
rthumb 9.41084 707.907
lclavicle -3.81667e-014 2.76311e-014
lhumerus -381.559 14.3221 -280.984
lradius 33.5959
lwrist -21.3082
lhand -10.9365 -723.323
lfingers 7.12502
lthumb 15.0817 -333.893
rfemur 14.3671 5.13754 27.3125
rtibia 29.2783
rfoot 340.278 18.2899
rtoes 22.1112
lfemur -37.3608 -21.2353 -13.404
ltibia 33.4358
lfoot -8.15826 -6.52353
ltoes -6.76501
32
root -0.0176762 16.2892 -5.57938 -1252.2 109.447 192.903
lowerback 40.0592 -0.337141 -3.22731
upperback 12.1266 -0.498478 -2.23591
thorax -5.82263 0.343279 -0.56674
lowerneck 5.88946 0.66664 -2.77933
upperneck 7.13138 0.634308 6.35862
head 1.20887 0.363086 2.49744
rclavicle -4.9895e-014 3.47873e-015
rhumerus -373.69 9.26009 270.663
rradius 36.4177
rwrist 16.5652
rhand -16.7827 737.669
rfingers 7.12502
rthumb 9.44505 707.9
lclavicle -4.9895e-014 3.47873e-015
lhumerus -381.198 13.7436 -280.854
lradius 34.1129
lwrist -20.5173
lhand -11.0812 -723.181
lfingers 7.12502
lthumb 14.9422 -333.74
rfemur 13.587 4.73286 26.5936
rtibia 31.1807
rfoot 341.228 19.3535
rtoes 23.2177
lfemur -37.756 -20.7033 -13.8027
ltibia 34.4901
lfoot -6.29191 -7.10727
ltoes -4.59927
33
root 0.110356 16.264 -5.56765 -1251.93 110.029 193.055
lowerback 40.8014 -0.148632 -3.64036
upperback 12.204 -0.432552 -2.29114
thorax -5.95016 0.382601 -0.445197
lowerneck 5.99052 0.76023 -2.8106
upperneck 7.03169 0.762138 6.21609
head 1.15343 0.420295 2.45229
rclavicle -3.73715e-014 1.17283e-014
rhumerus -373.498 9.19798 270.675
rradius 36.7178
rwrist 16.8182
rhand -16.7976 737.664
rfingers 7.12502
rthumb 9.43064 707.895
lclavicle -3.73715e-014 1.17283e-014
lhumerus -380.741 13.2803 -280.728
lradius 34.5865
lwrist -19.7506
lhand -11.1589 -723.026
lfingers 7.12502
lthumb 14.8674 -333.579
rfemur 12.6303 4.25591 25.7852
rtibia 33.3844
rfoot 342.463 20.4114
rtoes 24.3489
lfemur -38.1337 -20.1007 -14.2363
ltibia 35.6162
lfoot -5.01373 -7.556
ltoes -2.57864
34
root 0.237033 16.2375 -5.55585 -1251.62 110.611 193.25
lowerback 41.5258 0.0467461 -4.04748
upperback 12.2832 -0.363604 -2.36297
thorax -6.06485 0.424186 -0.347518
lowerneck 6.12824 0.84417 -2.85517
upperneck 6.91926 0.875869 6.08872
head 1.08864 0.469981 2.41443
rclavicle -4.39314e-014 5.52621e-014
rhumerus -373.389 9.14876 270.681
rradius 37.1088
rwrist 17.0331
rhand -16.8175 737.603
rfingers 7.12502
rthumb 9.41147 707.833
lclavicle -4.39314e-014 5.52621e-014
lhumerus -380.252 12.7712 -280.6
lradius 35.0667
lwrist -18.8933
lhand -11.2854 -722.84
lfingers 7.12502
lthumb 14.7455 -333.385
rfemur 11.4857 3.60987 24.8459
rtibia 35.8371
rfoot 344.028 21.5251
rtoes 25.4974
lfemur -38.5322 -19.3725 -14.719
ltibia 36.8018
lfoot -4.2532 -7.96218
ltoes -1.45914
35
root 0.364499 16.2079 -5.54408 -1251.32 111.198 193.428
lowerback 42.2221 0.245285 -4.46375
upperback 12.3872 -0.295873 -2.42484
thorax -6.13745 0.464618 -0.235786
lowerneck 6.27019 0.930991 -2.9491
upperneck 6.78926 0.989815 5.97995
head 1.0176 0.51858 2.39155
rclavicle 4.87022e-014 -1.78906e-014
rhumerus -373.324 9.18652 270.706
rradius 37.5917
rwrist 17.1257
rhand -16.8955 737.538
rfingers 7.12502
rthumb 9.33617 707.765
lclavicle 4.87022e-014 -1.78906e-014
lhumerus -379.686 12.21 -280.449
lradius 35.5352
lwrist -17.8945
lhand -11.4214 -722.608
lfingers 7.12502
lthumb 14.6145 -333.143
rfemur 10.1877 2.76754 23.7665
rtibia 38.4877
rfoot 345.935 22.6105
rtoes 26.2245
lfemur -38.9485 -18.5274 -15.2417
ltibia 38.0568
lfoot -3.79101 -8.30431
ltoes -0.807756
36
root 0.492147 16.1781 -5.53133 -1251.02 111.805 193.631
lowerback 42.9402 0.462051 -4.88655
upperback 12.4708 -0.220744 -2.50144
thorax -6.23328 0.509136 -0.142038
lowerneck 6.44545 1.01533 -3.0299
upperneck 6.68359 1.09987 5.87601
head 0.949078 0.566028 2.36788
rclavicle -3.49861e-014 3.51849e-014
rhumerus -373.377 9.30152 270.738
rradius 38.1881
rwrist 17.0034
rhand -16.952 737.478
rfingers 7.12502
rthumb 9.28162 707.702
lclavicle -3.49861e-014 3.51849e-014
lhumerus -379.153 11.5187 -280.309
lradius 36.0358
lwrist -16.8042
lhand -11.5733 -722.359
lfingers 7.12502
lthumb 14.4681 -332.884
rfemur 8.78607 1.7642 22.5729
rtibia 41.2676
rfoot 348.341 23.6356
rtoes 27.0667
lfemur -39.342 -17.6017 -15.8066
ltibia 39.3466
lfoot -3.61579 -8.63315
ltoes -0.416412
37
root 0.619244 16.1495 -5.51982 -1250.82 112.396 193.706
lowerback 43.6304 0.652204 -5.26736
upperback 12.5825 -0.161277 -2.56602
thorax -6.28502 0.54611 -0.05204
lowerneck 6.54588 1.10448 -3.17738
upperneck 6.5949 1.21116 5.78889
head 0.898295 0.613804 2.36254
rclavicle -2.34566e-014 -7.95139e-015
rhumerus -373.386 9.58877 270.787
rradius 38.808
rwrist 16.719
rhand -17.0636 737.413
rfingers 7.12502
rthumb 9.17393 707.632
lclavicle -2.34566e-014 -7.95139e-015
lhumerus -378.605 10.8288 -280.139
lradius 36.6115
lwrist -15.7352
lhand -11.8076 -722.043
lfingers 7.12502
lthumb 14.2424 -332.551
rfemur 7.24701 0.635763 21.3803
rtibia 44.1362
rfoot 350.994 24.4686
rtoes 27.6418
lfemur -39.7326 -16.6731 -16.2667
ltibia 40.6617
lfoot -3.61553 -8.99581
ltoes 0.177588
38
root 0.746075 16.1222 -5.5087 -1250.6 113.01 193.814
lowerback 44.4134 0.851394 -5.62742
upperback 12.6454 -0.103088 -2.66175
thorax -6.41097 0.585606 -0.00946428
lowerneck 6.59757 1.18157 -3.29013
upperneck 6.59408 1.30703 5.70363
head 0.884592 0.656829 2.35281
rclavicle 2.22639e-014 -2.62396e-014
rhumerus -373.409 9.82118 270.807
rradius 39.418
rwrist 16.3391
rhand -17.2357 737.446
rfingers 7.12502
rthumb 9.00795 707.658
lclavicle 2.22639e-014 -2.62396e-014
lhumerus -378.064 10.037 -280.011
lradius 37.1958
lwrist -14.7257
lhand -12.0525 -721.768
lfingers 7.12502
lthumb 14.0064 -332.26
rfemur 5.63686 -0.504555 20.1568
rtibia 47.026
rfoot 353.843 25.0455
rtoes 28.0878
lfemur -40.1042 -15.6363 -16.7899
ltibia 41.9614
lfoot -3.72918 -9.42578
ltoes 0.332903
